<mxfile host="app.diagrams.net" agent="Mozilla/5.0 (Windows NT 10.0; Win64; x64) AppleWebKit/537.36 (KHTML, like Gecko) Chrome/138.0.0.0 Safari/537.36 Edg/138.0.0.0" version="28.0.3">
  <diagram name="第 1 页" id="LwE5xCL2ZFKFGsvIqbKp">
    <mxGraphModel dx="1358" dy="659" grid="1" gridSize="10" guides="1" tooltips="1" connect="1" arrows="1" fold="1" page="1" pageScale="1" pageWidth="827" pageHeight="1169" math="0" shadow="0">
      <root>
        <mxCell id="0" />
        <mxCell id="1" parent="0" />
        <mxCell id="Acio0eNpaiCuDpitIBNN-1" value="&lt;b&gt;&lt;font style=&quot;font-size: 15px;&quot;&gt;Kernel mode Code&lt;/font&gt;&lt;/b&gt;" style="text;html=1;align=center;verticalAlign=middle;resizable=0;points=[];autosize=1;strokeColor=none;fillColor=none;" vertex="1" parent="1">
          <mxGeometry x="120" y="248" width="160" height="30" as="geometry" />
        </mxCell>
        <mxCell id="Acio0eNpaiCuDpitIBNN-2" value="" style="endArrow=none;html=1;rounded=0;" edge="1" parent="1">
          <mxGeometry width="50" height="50" relative="1" as="geometry">
            <mxPoint x="100" y="360" as="sourcePoint" />
            <mxPoint x="300" y="360" as="targetPoint" />
          </mxGeometry>
        </mxCell>
        <mxCell id="Acio0eNpaiCuDpitIBNN-3" value="" style="endArrow=none;html=1;rounded=0;" edge="1" parent="1">
          <mxGeometry width="50" height="50" relative="1" as="geometry">
            <mxPoint x="100" y="340" as="sourcePoint" />
            <mxPoint x="300" y="340" as="targetPoint" />
          </mxGeometry>
        </mxCell>
        <mxCell id="Acio0eNpaiCuDpitIBNN-4" value="" style="endArrow=none;html=1;rounded=0;" edge="1" parent="1">
          <mxGeometry width="50" height="50" relative="1" as="geometry">
            <mxPoint x="100" y="320" as="sourcePoint" />
            <mxPoint x="300" y="320" as="targetPoint" />
          </mxGeometry>
        </mxCell>
        <mxCell id="Acio0eNpaiCuDpitIBNN-5" value="" style="endArrow=none;html=1;rounded=0;" edge="1" parent="1">
          <mxGeometry width="50" height="50" relative="1" as="geometry">
            <mxPoint x="100" y="300" as="sourcePoint" />
            <mxPoint x="300" y="300" as="targetPoint" />
          </mxGeometry>
        </mxCell>
        <mxCell id="Acio0eNpaiCuDpitIBNN-6" value="" style="endArrow=none;html=1;rounded=0;" edge="1" parent="1">
          <mxGeometry width="50" height="50" relative="1" as="geometry">
            <mxPoint x="100" y="530" as="sourcePoint" />
            <mxPoint x="300" y="530" as="targetPoint" />
          </mxGeometry>
        </mxCell>
        <mxCell id="Acio0eNpaiCuDpitIBNN-7" value="" style="endArrow=none;html=1;rounded=0;" edge="1" parent="1">
          <mxGeometry width="50" height="50" relative="1" as="geometry">
            <mxPoint x="100" y="510" as="sourcePoint" />
            <mxPoint x="300" y="510" as="targetPoint" />
          </mxGeometry>
        </mxCell>
        <mxCell id="Acio0eNpaiCuDpitIBNN-8" value="" style="endArrow=none;html=1;rounded=0;" edge="1" parent="1">
          <mxGeometry width="50" height="50" relative="1" as="geometry">
            <mxPoint x="100" y="490" as="sourcePoint" />
            <mxPoint x="300" y="490" as="targetPoint" />
          </mxGeometry>
        </mxCell>
        <mxCell id="Acio0eNpaiCuDpitIBNN-9" value="" style="endArrow=none;html=1;rounded=0;" edge="1" parent="1">
          <mxGeometry width="50" height="50" relative="1" as="geometry">
            <mxPoint x="100" y="470" as="sourcePoint" />
            <mxPoint x="300" y="470" as="targetPoint" />
          </mxGeometry>
        </mxCell>
        <mxCell id="Acio0eNpaiCuDpitIBNN-10" value="" style="endArrow=none;html=1;rounded=0;" edge="1" parent="1">
          <mxGeometry width="50" height="50" relative="1" as="geometry">
            <mxPoint x="100" y="614" as="sourcePoint" />
            <mxPoint x="300" y="614" as="targetPoint" />
          </mxGeometry>
        </mxCell>
        <mxCell id="Acio0eNpaiCuDpitIBNN-11" value="" style="endArrow=none;html=1;rounded=0;" edge="1" parent="1">
          <mxGeometry width="50" height="50" relative="1" as="geometry">
            <mxPoint x="100" y="594" as="sourcePoint" />
            <mxPoint x="300" y="594" as="targetPoint" />
          </mxGeometry>
        </mxCell>
        <mxCell id="Acio0eNpaiCuDpitIBNN-12" value="" style="endArrow=none;html=1;rounded=0;" edge="1" parent="1">
          <mxGeometry width="50" height="50" relative="1" as="geometry">
            <mxPoint x="100" y="574" as="sourcePoint" />
            <mxPoint x="300" y="574" as="targetPoint" />
          </mxGeometry>
        </mxCell>
        <mxCell id="Acio0eNpaiCuDpitIBNN-13" value="" style="endArrow=none;html=1;rounded=0;" edge="1" parent="1">
          <mxGeometry width="50" height="50" relative="1" as="geometry">
            <mxPoint x="100" y="554" as="sourcePoint" />
            <mxPoint x="300" y="554" as="targetPoint" />
          </mxGeometry>
        </mxCell>
        <mxCell id="Acio0eNpaiCuDpitIBNN-14" value="&lt;font style=&quot;font-size: 16px;&quot;&gt;&lt;b&gt;Interupt&lt;/b&gt;&lt;/font&gt;" style="text;html=1;align=center;verticalAlign=middle;resizable=0;points=[];autosize=1;strokeColor=none;fillColor=none;" vertex="1" parent="1">
          <mxGeometry x="170" y="360" width="80" height="30" as="geometry" />
        </mxCell>
        <mxCell id="Acio0eNpaiCuDpitIBNN-15" value="" style="verticalLabelPosition=bottom;verticalAlign=top;html=1;shape=mxgraph.basic.flash;direction=north;rotation=15;fillColor=#FFFF33;strokeColor=#B09500;fontColor=#000000;" vertex="1" parent="1">
          <mxGeometry x="110.32999999999998" y="380" width="179.35" height="52.28" as="geometry" />
        </mxCell>
        <mxCell id="Acio0eNpaiCuDpitIBNN-29" style="edgeStyle=orthogonalEdgeStyle;rounded=0;orthogonalLoop=1;jettySize=auto;html=1;exitX=0.5;exitY=1;exitDx=0;exitDy=0;" edge="1" parent="1" source="Acio0eNpaiCuDpitIBNN-20" target="Acio0eNpaiCuDpitIBNN-21">
          <mxGeometry relative="1" as="geometry" />
        </mxCell>
        <mxCell id="Acio0eNpaiCuDpitIBNN-20" value="Save CPU/Stack state" style="rounded=0;whiteSpace=wrap;html=1;fillColor=#d5e8d4;gradientColor=#97d077;strokeColor=#82b366;" vertex="1" parent="1">
          <mxGeometry x="370" y="300" width="163" height="30" as="geometry" />
        </mxCell>
        <mxCell id="Acio0eNpaiCuDpitIBNN-30" value="" style="edgeStyle=orthogonalEdgeStyle;rounded=0;orthogonalLoop=1;jettySize=auto;html=1;" edge="1" parent="1" source="Acio0eNpaiCuDpitIBNN-21" target="Acio0eNpaiCuDpitIBNN-22">
          <mxGeometry relative="1" as="geometry" />
        </mxCell>
        <mxCell id="Acio0eNpaiCuDpitIBNN-21" value="Mask equal or lower IRQL Interrupts" style="rounded=0;whiteSpace=wrap;html=1;fillColor=#dae8fc;gradientColor=#7ea6e0;strokeColor=#6c8ebf;" vertex="1" parent="1">
          <mxGeometry x="370" y="360" width="163" height="30" as="geometry" />
        </mxCell>
        <mxCell id="Acio0eNpaiCuDpitIBNN-32" style="edgeStyle=orthogonalEdgeStyle;rounded=0;orthogonalLoop=1;jettySize=auto;html=1;exitX=0.5;exitY=1;exitDx=0;exitDy=0;entryX=0.5;entryY=0;entryDx=0;entryDy=0;" edge="1" parent="1" source="Acio0eNpaiCuDpitIBNN-22" target="Acio0eNpaiCuDpitIBNN-23">
          <mxGeometry relative="1" as="geometry" />
        </mxCell>
        <mxCell id="Acio0eNpaiCuDpitIBNN-22" value="Call appropriate Routines" style="rounded=0;whiteSpace=wrap;html=1;fillColor=#dae8fc;gradientColor=#7ea6e0;strokeColor=#6c8ebf;" vertex="1" parent="1">
          <mxGeometry x="370" y="440" width="163" height="30" as="geometry" />
        </mxCell>
        <mxCell id="Acio0eNpaiCuDpitIBNN-33" value="" style="edgeStyle=orthogonalEdgeStyle;rounded=0;orthogonalLoop=1;jettySize=auto;html=1;" edge="1" parent="1" source="Acio0eNpaiCuDpitIBNN-23" target="Acio0eNpaiCuDpitIBNN-24">
          <mxGeometry relative="1" as="geometry" />
        </mxCell>
        <mxCell id="Acio0eNpaiCuDpitIBNN-23" value="Routines execute" style="rounded=0;whiteSpace=wrap;html=1;fillColor=#f8cecc;gradientColor=#ea6b66;strokeColor=#b85450;" vertex="1" parent="1">
          <mxGeometry x="370" y="510" width="163" height="30" as="geometry" />
        </mxCell>
        <mxCell id="Acio0eNpaiCuDpitIBNN-24" value="Restore CPU/Stack states" style="rounded=0;whiteSpace=wrap;html=1;fillColor=#d5e8d4;gradientColor=#97d077;strokeColor=#82b366;" vertex="1" parent="1">
          <mxGeometry x="370" y="585" width="163" height="30" as="geometry" />
        </mxCell>
        <mxCell id="Acio0eNpaiCuDpitIBNN-25" style="edgeStyle=orthogonalEdgeStyle;rounded=0;orthogonalLoop=1;jettySize=auto;html=1;exitX=0.5;exitY=1;exitDx=0;exitDy=0;curved=1;entryX=0;entryY=0.995;entryDx=0;entryDy=0;entryPerimeter=0;" edge="1" parent="1" source="Acio0eNpaiCuDpitIBNN-24" target="Acio0eNpaiCuDpitIBNN-15">
          <mxGeometry relative="1" as="geometry">
            <mxPoint x="200" y="440" as="targetPoint" />
            <Array as="points">
              <mxPoint x="452" y="635" />
              <mxPoint x="320" y="635" />
              <mxPoint x="320" y="454" />
            </Array>
          </mxGeometry>
        </mxCell>
        <mxCell id="Acio0eNpaiCuDpitIBNN-27" value="" style="curved=1;endArrow=classic;html=1;rounded=0;exitX=0.555;exitY=0.746;exitDx=0;exitDy=0;exitPerimeter=0;entryX=0.531;entryY=-0.036;entryDx=0;entryDy=0;entryPerimeter=0;" edge="1" parent="1" source="Acio0eNpaiCuDpitIBNN-15" target="Acio0eNpaiCuDpitIBNN-20">
          <mxGeometry width="50" height="50" relative="1" as="geometry">
            <mxPoint x="620" y="340" as="sourcePoint" />
            <mxPoint x="670" y="290" as="targetPoint" />
            <Array as="points">
              <mxPoint x="300" y="390" />
              <mxPoint x="320" y="340" />
              <mxPoint x="340" y="280" />
              <mxPoint x="430" y="260" />
            </Array>
          </mxGeometry>
        </mxCell>
      </root>
    </mxGraphModel>
  </diagram>
</mxfile>
